<!DOCTYPE svg PUBLIC "-//W3C//DTD SVG 1.1//EN" "http://www.w3.org/Graphics/SVG/1.1/DTD/svg11.dtd">
<!-- Uploaded to: SVG Repo, www.svgrepo.com, Transformed by: SVG Repo Mixer Tools -->
<svg fill="#c7dbe6" width="800px" height="800px" viewBox="0 0 24 24" id="notification-circle" data-name="Flat Line" xmlns="http://www.w3.org/2000/svg" class="icon flat-line" stroke="#c7dbe6">
<g id="SVGRepo_bgCarrier" stroke-width="0"/>
<g id="SVGRepo_tracerCarrier" stroke-linecap="round" stroke-linejoin="round"/>
<g id="SVGRepo_iconCarrier">
<path id="secondary" d="M18,13V9c0-.06,0-.12,0-.18A3,3,0,0,1,17,9a3,3,0,0,1-3-3,2.94,2.94,0,0,1,1-2.2A5.9,5.9,0,0,0,12,3,6,6,0,0,0,6,9v4L4.62,14.38A2.12,2.12,0,0,0,6.12,18H17.88a2.12,2.12,0,0,0,1.5-3.62Z" style="fill: #c7dbe6; stroke-width:0.192;"/>
<path id="primary" d="M18,9v4l1.38,1.38A2.12,2.12,0,0,1,17.88,18H6.12a2.12,2.12,0,0,1-1.5-3.62L6,13V9a6,6,0,0,1,6-6,6,6,0,0,1,2.88.73" style="fill: none; stroke: #000000; stroke-linecap: round; stroke-linejoin: round; stroke-width:0.192;"/>
<path id="primary-2" data-name="primary" d="M12,21h0a3,3,0,0,1-3-3h6A3,3,0,0,1,12,21ZM14,6a3,3,0,0,0,3,3h0a3,3,0,0,0,3-3h0a3,3,0,0,0-3-3h0a3,3,0,0,0-3,3Z" style="fill: none; stroke: #000000; stroke-linecap: round; stroke-linejoin: round; stroke-width:0.192;"/>
</g>
</svg>